<svg xmlns="http://www.w3.org/2000/svg" viewBox="0 0 500 500"><g id="freepik--background-complete--inject-15"><path d="M185,159l-6.38,18.64a14.51,14.51,0,0,1-18.87,9.23A14.86,14.86,0,0,1,150.5,168l10.21-29.83c.1-.28.39-.18.49-.47-.19-.38-.19-.38-.09-.68A15.27,15.27,0,0,1,180,127.82c18.08,6.19,37.61-3.14,43.7-20.92C229.85,88.84,220,69.78,202,63.59A33.51,33.51,0,0,0,169,69.93a14.93,14.93,0,0,1-21.26-1.52,14.76,14.76,0,0,1,1.71-20.87,63.55,63.55,0,0,1,62.11-12c33.27,11.39,51.27,47.68,39.88,80.94A63.66,63.66,0,0,1,185,159Zm-21.5,62.79L161.71,227a14.51,14.51,0,0,1-18.87,9.24,14.87,14.87,0,0,1-9.23-18.86l1.77-5.16A15.07,15.07,0,0,1,154.23,203,14.69,14.69,0,0,1,163.48,221.81Z" style="fill:#ebebeb"></path><path d="M80.56,157.07l2-13.16A9.79,9.79,0,0,1,94,135.5a10,10,0,0,1,8.41,11.41L99.19,168c0,.2-.23.17-.27.38.18.22.18.22.15.43a10.33,10.33,0,0,1-11.41,8.42,22.93,22.93,0,1,0-6.87,45.33,22.63,22.63,0,0,0,21.11-8.19,10.09,10.09,0,0,1,14.31-1.56,10,10,0,0,1,1.38,14.08,43,43,0,1,1-37-69.78Zm6.71-44.32.55-3.64a9.8,9.8,0,0,1,11.43-8.42,10,10,0,0,1,8.4,11.42l-.55,3.64a10.16,10.16,0,0,1-11.41,8.41A9.91,9.91,0,0,1,87.27,112.75Z" style="fill:#ebebeb"></path><path d="M392,405.31l-9.58,9.24a9.8,9.8,0,0,1-14.18-.26,10.05,10.05,0,0,1,.26-14.18l15.32-14.78c.15-.14.29,0,.44-.13s0-.29.15-.43a10.31,10.31,0,0,1,14.18.25,22.93,22.93,0,1,0,33-31.83,22.63,22.63,0,0,0-21.74-6.33,10.09,10.09,0,0,1-12.31-7.46,10,10,0,0,1,7.45-12,43,43,0,1,1-13,77.92Zm-32.26,31.12L357,439a9.81,9.81,0,0,1-14.19-.25,10.05,10.05,0,0,1,.26-14.18l2.65-2.56a10.18,10.18,0,0,1,14.18.26A9.92,9.92,0,0,1,359.69,436.43Z" style="fill:#ebebeb"></path></g><g id="freepik--Brain--inject-15"><path d="M240.08,363.54c-1.86,9.17-21.44,105.86-25.5,105.86-4.27,0-88.54,10.18-89.91,8.82S143.56,449.7,155,448.49,193.16,453,193.16,453c8.34-13.22,15.93-81.83,16.76-89.47Z" style="fill:#FFC727"></path><path d="M327.26,478.22c-.55.55-32.49,1.06-44.24.11-27.1-2.21-52.29-8.93-54.83-8.93-4.07,0,20.36-96.7,22.69-105.86h31.71c-3.27,7.66-32.15,76.25-23.83,89.47,0,0,26.67-5.74,38.14-4.52S328.63,476.84,327.26,478.22Z" style="fill:#FFC727"></path><path d="M435.8,347.61c-2.49,7.22-17.15,22.06-21,24.13S392.52,354,392.58,349.55s10.32-28.1,16.9-32.26S438.38,340.13,435.8,347.61Z" style="fill:#FFC727"></path><path d="M421.1,304.5c0-3.54-2.42-14.5-5.5-14.44s-3.24,8-3.19,11.22c.09,6.64-3.1,15.26-4.72,19.4s9.64,3.55,9.64,3.55S421.19,313.68,421.1,304.5Z" style="fill:#FFC727"></path><path d="M405.66,326.42s-4.87,6.15-2.42,9.88,7.28-.52,7.63-.81c-.25.32-4.58,6.09-1.73,9.59s7.18-1.34,7.45-1.67c-.15.39-2,5.51.81,7.68,4.77,3.72,9.77-9.25,14.32-11,0,0,3.92,7.37,4.08,7.56,0,0,5-12.24,2.25-18.25a4.23,4.23,0,0,0-4.7-2.43s2-3.77-.11-6.6c-1.11-1.45-4.42-1-4.42-1s1.52-3.08-.56-5.48c-1.65-1.91-5-1.36-6.06-.86C413.72,316.91,405.66,326.42,405.66,326.42Z" style="fill:#FFC727"></path><path d="M423.05,312.82c.06,0,0-.14-.05-.11a37.65,37.65,0,0,0-17.58,13.86c-.14.2.14.51.33.31A76.82,76.82,0,0,1,423.05,312.82Z" style="fill:#263238"></path><path d="M428.89,319.28a.08.08,0,0,0-.08-.13c-7.05,2.76-14.46,8.61-18.25,16.31-.13.26,0,.63.19.33C413.66,330.87,422.81,322.78,428.89,319.28Z" style="fill:#263238"></path><path d="M416.51,344c3.92-7.23,9.76-12.49,16.54-17,.09,0,0-.17-.09-.14-3.92,1.31-7.94,4.65-10.85,7.51a21.73,21.73,0,0,0-5.86,9.51C416.21,344.05,416.42,344.2,416.51,344Z" style="fill:#263238"></path><path d="M405.66,326.42a24.2,24.2,0,0,0-2.11,4,8.27,8.27,0,0,0-.74,4.26,2.78,2.78,0,0,0,1,1.71,4.05,4.05,0,0,0,1.83.82,4.85,4.85,0,0,0,3.72-1.3l2.51-2.17-1.6,2.91a13.68,13.68,0,0,0-1.51,4.13,4.88,4.88,0,0,0,.7,3.91,2.77,2.77,0,0,0,3.35,1,8.28,8.28,0,0,0,3.29-2.62l2.46-3.06-1.32,3.68a12.73,12.73,0,0,0-.7,3.18,5.2,5.2,0,0,0,.49,3,2.49,2.49,0,0,0,2.29,1.3,5.53,5.53,0,0,0,2.75-1.4,43.13,43.13,0,0,0,4.66-5c.76-.88,1.51-1.75,2.3-2.59a8.13,8.13,0,0,1,2.73-2.11,8.87,8.87,0,0,0-2.49,2.32c-.72.89-1.4,1.81-2.08,2.74a37,37,0,0,1-4.5,5.32,6.4,6.4,0,0,1-3.25,1.78,3.54,3.54,0,0,1-3.45-1.78,6.43,6.43,0,0,1-.71-3.7,14,14,0,0,1,.73-3.55l1.14.62a9.51,9.51,0,0,1-3.85,3.14,4,4,0,0,1-2.71.13,4.53,4.53,0,0,1-2.18-1.57,6.17,6.17,0,0,1-.89-4.95,15,15,0,0,1,1.73-4.52l.91.75a5.8,5.8,0,0,1-4.69,1.35,4.81,4.81,0,0,1-2.21-1.13,3.52,3.52,0,0,1-1.13-2.22,8.53,8.53,0,0,1,1.09-4.53A19.94,19.94,0,0,1,405.66,326.42Z" style="fill:#263238"></path><path d="M393.62,345.22s-2.35-32.31,10.72-27c3.89,1.57,18,12.63,15.81,15.51-2.8,3.71-9.54.18-13.43-2.7,0,0,2.35,10.88-4.73,14.77A8,8,0,0,1,393.62,345.22Z" style="fill:#FFC727"></path><path d="M403.23,317.81a16.85,16.85,0,0,1,4.52,2,35.65,35.65,0,0,1,4.1,2.79,56.49,56.49,0,0,1,7.35,6.68,9,9,0,0,1,1.49,2.17,3.31,3.31,0,0,1,.35,1.46,2.26,2.26,0,0,1-.12.82,2.47,2.47,0,0,1-.39.72,4.13,4.13,0,0,1-2.46,1.52,7.66,7.66,0,0,1-2.7,0,15,15,0,0,1-4.8-1.77,33.88,33.88,0,0,1-4.18-2.75l.89-.59a19.45,19.45,0,0,1,.31,3.79,19,19,0,0,1-.4,3.75,12.89,12.89,0,0,1-1.35,3.51,9.74,9.74,0,0,1-2.39,2.83,10.89,10.89,0,0,0,2-3,13.51,13.51,0,0,0,1-3.47,18,18,0,0,0,.18-3.6,19.73,19.73,0,0,0-.49-3.54l-.35-1.43,1.24.84a36.56,36.56,0,0,0,4.12,2.51,14.54,14.54,0,0,0,4.4,1.58c1.46.22,3.1,0,3.85-1,.74-.84-.24-2.35-1.22-3.53a47.64,47.64,0,0,0-3.33-3.51c-1.17-1.15-2.34-2.27-3.58-3.34C408.81,321.17,406.28,319,403.23,317.81Z" style="fill:#263238"></path><path d="M323.72,349.49l30.1-22.3s18.39,20,21.61,22.4,18.44-1.23,18.44-1.23L419,368.46s-5.18,4.72-8,5.3c-13.2,2.7-43.38,3.06-51.18-.82C350.21,368.2,323.72,349.49,323.72,349.49Z" style="fill:#FFC727"></path><path d="M315.42,172.51s21.39-6.58,38.28,4.89,20.2,30.14,20.2,30.14A34.83,34.83,0,0,1,398,219.59c10.54,12,7.73,30.37,7.73,30.37s10.44,7,10.72,22.84c.17,9.22-6.92,17.85-6.92,17.85s.64,18.53-15.53,29.59c-18.32,12.54-34.35,10.07-34.35,10.07s-11.05,12.14-26,15.65-29.24-3.43-29.24-3.43-9.4,7.74-19.83,9-18.76-5.34-18.76-5.34-14.67,9.5-30,7.84c-15.67-1.7-23.91-9.46-23.91-9.46s-18.36,5.85-27.71,3.5c-16.26-4.08-20.78-17.44-20.78-17.44s-19.43-4.72-28.81-22.45S132,269.37,132,269.37a29.1,29.1,0,0,1-11-16.78c-2.65-11.33,4.62-20.87,4.62-20.87s-5.16-12.39-1.92-24.22c4-14.47,17.29-21.41,17.29-21.41,3.7-21.63,24.44-23.79,24.44-23.79a24.92,24.92,0,0,1,12-15.18,28.62,28.62,0,0,1,19.45-2.48,55.94,55.94,0,0,1,25.88-6.33c14.21.29,23.72,11.32,23.72,11.32s8.33-5.28,17.15-5.61,17.59,9.67,17.59,9.67,12.26-3.94,21.61,2.16C314.69,163.54,315.42,172.51,315.42,172.51Z" style="fill:#FFC727"></path><path d="M315.42,172.51s21.39-6.58,38.28,4.89,20.2,30.14,20.2,30.14A34.83,34.83,0,0,1,398,219.59c10.54,12,7.73,30.37,7.73,30.37s10.44,7,10.72,22.84c.17,9.22-6.92,17.85-6.92,17.85s.64,18.53-15.53,29.59c-18.32,12.54-34.35,10.07-34.35,10.07s-11.05,12.14-26,15.65-29.24-3.43-29.24-3.43-9.4,7.74-19.83,9-18.76-5.34-18.76-5.34-14.67,9.5-30,7.84c-15.67-1.7-23.91-9.46-23.91-9.46s-18.36,5.85-27.71,3.5c-16.26-4.08-20.78-17.44-20.78-17.44s-19.43-4.72-28.81-22.45S132,269.37,132,269.37a29.1,29.1,0,0,1-11-16.78c-2.65-11.33,4.62-20.87,4.62-20.87s-5.16-12.39-1.92-24.22c4-14.47,17.29-21.41,17.29-21.41,3.7-21.63,24.44-23.79,24.44-23.79a24.92,24.92,0,0,1,12-15.18,28.62,28.62,0,0,1,19.45-2.48,55.94,55.94,0,0,1,25.88-6.33c14.21.29,23.72,11.32,23.72,11.32s8.33-5.28,17.15-5.61,17.59,9.67,17.59,9.67,12.26-3.94,21.61,2.16C314.69,163.54,315.42,172.51,315.42,172.51Z" style="fill:#fff;opacity:0.30000000000000004"></path><path d="M416.43,272.81c.09,5.08-2,10-3.93,13.36l-2.91,4.37-.06.08c8.92-23.76-8.92-41.22-8.92-41.22-1.27-36.74-37.3-33-37.3-33-7.32-32.85-49-31-49-31-6.58-20.72-34.57-18.85-34.57-18.85-15.92-14.1-35.34-1.25-35.34-1.25-15.49-26.19-43.16-9.16-43.16-9.16-23.45-1.18-27.39,18-27.39,18-16.58,1.68-28.07,20.92-28.07,20.92-21.73,9.19-20.1,36.65-20.1,36.65l0,0c-.27-.68-5-12.69-1.9-24.2,4-14.46,17.29-21.4,17.29-21.4,3.71-21.62,24.44-23.79,24.44-23.79a24.92,24.92,0,0,1,12-15.18,28.69,28.69,0,0,1,19.45-2.48,55.8,55.8,0,0,1,25.88-6.33c14.21.29,23.72,11.32,23.72,11.32s8.33-5.28,17.15-5.61,17.59,9.67,17.59,9.67,12.26-3.94,21.61,2.15c11.81,7.7,12.54,16.67,12.54,16.67s21.39-6.58,38.28,4.88,20.19,30.15,20.19,30.15a34.86,34.86,0,0,1,24.09,12c10.54,12,7.73,30.38,7.73,30.38S416.15,256.93,416.43,272.81Z" style="fill:#fff;opacity:0.4"></path><path d="M304.44,342.46c4.1-7.13,2.31-15.66-1.85-22.27a44.37,44.37,0,0,0-5.11-6.42,18.6,18.6,0,0,1,11.67,12.51c1.67,5.54.55,13-4.71,16.18Z" style="fill:#FFC727"></path><path d="M374,207.38c6.64,17-.32,31.5-17.59,37.23,15.07-11.89,18.11-18,17.59-37.23Z" style="fill:#FFC727"></path><path d="M322.7,206.24c-5.87,9.3-19.27,11.63-29.1,8,10-1.37,20.3-2.74,29.1-8Z" style="fill:#FFC727"></path><path d="M265.83,346.3c6.93-8.37,14.94-18.7,11.65-30.1a19.15,19.15,0,0,0-1.17-2.81c-.23-.39-.79-1.22-1-1.62,6.38,3.82,7.14,13,4.48,19.43a29.34,29.34,0,0,1-13.95,15.1Z" style="fill:#FFC727"></path><path d="M180.44,291.87c2.32-2.59,4.86-5.17,6-8.43l1.13-.09c7.75-.56,15.2-4,20-10.3-1.22,6.55-7.2,11.35-13.54,12.71a21.3,21.3,0,0,1-6.55.54l1.4-.86a16.17,16.17,0,0,1-8.39,6.43Z" style="fill:#FFC727"></path><path d="M125.72,232a123.39,123.39,0,0,0,20.91,11.48c-8.37,1.57-17.72-3.62-20.91-11.48Z" style="fill:#FFC727"></path><path d="M185.88,175.21a122.62,122.62,0,0,0-23.23,5.4c5.18-6.76,15.61-9.13,23.23-5.4Z" style="fill:#FFC727"></path><path d="M152.72,276.6c8.83,5.63,13,19.08,6.67,28a52.11,52.11,0,0,0,.14-7.45c-.43-7.37-3.47-13.95-6.81-20.52Z" style="fill:#FFC727"></path><path d="M160.8,201.44c-.51,5.93-.81,11.95.28,17.84-4.24-4.82-4-12.77-.28-17.84Z" style="fill:#FFC727"></path><path d="M293.52,226c4.49-3.91,8.88-8,12.19-13-.3,6.42-6,11.93-12.19,13Z" style="fill:#FFC727"></path><path d="M409.47,290.85c-3.56-5.64-7.38-11.2-12.35-15.72,7.06,1.42,12.19,8.71,12.35,15.72Z" style="fill:#FFC727"></path><path d="M230.44,195.17c7.12,3.25,12.12,11.22,13.29,18.82-2.18-2.68-4.74-6.58-6.72-9.4s-4.52-6.64-6.57-9.42Z" style="fill:#FFC727"></path><path d="M304.51,321.38a48.36,48.36,0,0,0,18.27-15.51c8.76-12.91,8.69-31.38-1.73-43.44a60.18,60.18,0,0,0-19.14-14.73A46.21,46.21,0,0,1,323.71,260c9.56,9.3,12.21,24,8.19,36.55S317,318.47,304.51,321.38Z" style="fill:#FFC727"></path><path d="M300.12,285.58c-17-.59-33.12-13.6-35.85-30.68a44.06,44.06,0,0,1,.15-16.63,77.28,77.28,0,0,0,2.5,16c4.12,15.94,17.76,26.76,33.2,31.3Z" style="fill:#FFC727"></path><path d="M244.36,283.42a19.13,19.13,0,0,1,26.86-15.68c-2.13.26-4.29.27-6.36.65-9.06,1.09-15.9,7.39-20.5,15Z" style="fill:#FFC727"></path><path d="M391.19,301.88a19.13,19.13,0,0,1-31,2c2,.73,4,1.68,6,2.27,8.59,3.09,17.53.54,25.07-4.23Z" style="fill:#FFC727"></path><path d="M230,288.65c9,14.35,8.76,34.82-3.91,47a40.13,40.13,0,0,1-14,8.88,65.63,65.63,0,0,0,12-10.72c10.84-12.45,10.73-30.08,5.91-45.16Z" style="fill:#FFC727"></path><path d="M234.19,316.06c3-7.73,13.79-11,20.69-6.46-3.65.51-7.27.81-10.75,2a51,51,0,0,0-9.94,4.5Z" style="fill:#FFC727"></path><path d="M334.22,215.17c-3.86-20.81-16.91-33.44-38.75-30.78a63.63,63.63,0,0,0-18.33,5.47A39.59,39.59,0,0,1,290,182.21c24.12-8.88,46.33,7,44.27,33Z" style="fill:#FFC727"></path><path d="M230,181.74c-16.43-13.35-34.56-14.5-49.47,1.68a63.41,63.41,0,0,0-10.4,16,39.21,39.21,0,0,1,4.78-14.12c12.62-22.41,39.84-24.68,55.09-3.6Z" style="fill:#FFC727"></path><path d="M333.45,324.6c12.3,5.79,25.11,6.35,34.61-4.53a68.8,68.8,0,0,0,7.5-10.71c-2.09,9.95-9.06,20.09-19.72,22.08-7.95,1.74-16.58-1.5-22.39-6.84Z" style="fill:#FFC727"></path><path d="M189.8,257.92c-7.87,15.4-26,25.53-43.1,19.91a40.16,40.16,0,0,1-14.61-8.36,64.81,64.81,0,0,0,15.29,5.73c16.46,3.8,31.8-5.12,42.42-17.28Z" style="fill:#FFC727"></path><path d="M230.53,166c12.62-5.13,30.39-.26,35.09,13.45C256.55,169,243.84,166.18,230.53,166Z" style="fill:#FFC727"></path><path d="M206.51,220.1c11.6,7.15,18.16,24.37,9.86,36.26,3.08-13.49-2.17-25.4-9.86-36.26Z" style="fill:#FFC727"></path><path d="M239.59,244.43c-9.27-21,4.52-41.42,27.27-41.89a73.93,73.93,0,0,0-12.65,6.2c-12.53,7.58-16.06,21.73-14.62,35.69Z" style="fill:#FFC727"></path><path d="M190.82,345.08c-4.95-4.3-7.07-11.89-6.2-18.27,1.12,2.67,2.24,6.41,3.16,9.15s2.05,6.4,3,9.12Z" style="fill:#FFC727"></path><path d="M195.17,303.37c2.45,19.06-13.46,32.17-31.83,27.14a62.51,62.51,0,0,0,11.62-2c11.86-3.1,18.06-13.62,20.21-25.17Z" style="fill:#FFC727"></path><path d="M343.91,237.68c20.31,2.29,28.34,20.49,13.86,35.79a55.31,55.31,0,0,0,3.71-11c2.83-12.61-7.3-20.06-17.57-24.81Z" style="fill:#FFC727"></path><path d="M146.55,215.71c19.88-4.71,33.6,9.7,25.14,29a55,55,0,0,0-.22-11.58c-1.59-12.82-13.65-16.41-24.92-17.41Z" style="fill:#FFC727"></path><path d="M405.71,250.19a27.16,27.16,0,0,0-11.42-6.91l1.79-2.36a16.06,16.06,0,0,1,2.48,7.36,15.85,15.85,0,0,1-5.95,13.55,23.1,23.1,0,0,1-6.24,3.63c.83-.88,1.67-1.7,2.51-2.49,5.59-5.72,8.28-12.84,4.55-20.34l-2-3.84,3.79,1.47a18.77,18.77,0,0,1,10.49,9.93Z" style="fill:#FFC727"></path><path d="M275.79,204.14s21.79-5.11,37.85,7.49,18.11,31.43,18.11,31.43A34.88,34.88,0,0,1,355,256.72c9.7,12.71,5.65,30.83,5.65,30.83s9.94,7.66,9.14,23.52c-.46,9.21-8.12,17.33-8.12,17.33s-.62,18.54-17.5,28.47c-19.13,11.26-34.95,7.71-34.95,7.71s-11.86,11.37-27,13.86S253.19,373,253.19,373s-9.91,7.08-20.39,7.66-18.36-6.61-18.36-6.61-15.28,8.49-30.45,5.79c-15.52-2.76-23.21-11.06-23.21-11.06s-18.72,4.59-27.89,1.61c-15.95-5.18-19.55-18.81-19.55-18.81s-19.06-6-27.21-24.36.11-38.92.11-38.92a29.07,29.07,0,0,1-9.81-17.49c-1.88-11.49,6-20.5,6-20.5s-4.32-12.72-.28-24.3c4.94-14.17,18.71-20.18,18.71-20.18,5.16-21.33,26-22.08,26-22.08a24.87,24.87,0,0,1,13-14.33,28.67,28.67,0,0,1,19.57-1.16,55.94,55.94,0,0,1,26.25-4.55c14.16,1.25,22.9,12.9,22.9,12.9s8.67-4.7,17.49-4.43S243,183.05,243,183.05s12.5-3.1,21.42,3.62C275.66,195.15,275.79,204.14,275.79,204.14Z" style="fill:#FFC727"></path><path d="M275.79,204.14s21.79-5.11,37.85,7.49,18.11,31.43,18.11,31.43A34.88,34.88,0,0,1,355,256.72c9.7,12.71,5.65,30.83,5.65,30.83s9.94,7.66,9.14,23.52c-.46,9.21-8.12,17.33-8.12,17.33s-.62,18.54-17.5,28.47c-19.13,11.26-34.95,7.71-34.95,7.71s-11.86,11.37-27,13.86S253.19,373,253.19,373s-9.91,7.08-20.39,7.66-18.36-6.61-18.36-6.61-15.28,8.49-30.45,5.79c-15.52-2.76-23.21-11.06-23.21-11.06s-18.72,4.59-27.89,1.61c-15.95-5.18-19.55-18.81-19.55-18.81s-19.06-6-27.21-24.36.11-38.92.11-38.92a29.07,29.07,0,0,1-9.81-17.49c-1.88-11.49,6-20.5,6-20.5s-4.32-12.72-.28-24.3c4.94-14.17,18.71-20.18,18.71-20.18,5.16-21.33,26-22.08,26-22.08a24.87,24.87,0,0,1,13-14.33,28.67,28.67,0,0,1,19.57-1.16,55.94,55.94,0,0,1,26.25-4.55c14.16,1.25,22.9,12.9,22.9,12.9s8.67-4.7,17.49-4.43S243,183.05,243,183.05s12.5-3.1,21.42,3.62C275.66,195.15,275.79,204.14,275.79,204.14Z" style="fill:#fff;opacity:0.30000000000000004"></path><path d="M369.75,311.08c-.25,5.07-2.69,9.81-4.83,13.05l-3.2,4.18-.06.06c10.51-23.1-6.11-41.73-6.11-41.73,1.24-36.73-35-35.46-35-35.46-5.06-33.27-46.79-34.26-46.79-34.26-5.16-21.11-33.2-21.15-33.2-21.15-14.93-15.15-35.18-3.64-35.18-3.64C191.74,164.94,163,180.05,163,180.05c-23.32-2.77-28.55,16.12-28.55,16.12-16.66.55-29.43,19-29.43,19-22.3,7.69-22.54,35.2-22.54,35.2v0c-.23-.69-4.18-13-.26-24.27,4.95-14.16,18.71-20.17,18.71-20.17,5.16-21.33,26-22.08,26-22.08a24.88,24.88,0,0,1,13-14.33,28.66,28.66,0,0,1,19.58-1.15,55.91,55.91,0,0,1,26.25-4.57c14.16,1.26,22.9,12.91,22.9,12.91s8.66-4.7,17.49-4.43S243,183.05,243,183.05s12.5-3.1,21.41,3.62c11.26,8.48,11.39,17.48,11.39,17.48s21.78-5.12,37.85,7.47,18.11,31.45,18.11,31.45A34.81,34.81,0,0,1,355,256.72c9.71,12.71,5.66,30.83,5.66,30.83S370.55,295.21,369.75,311.08Z" style="fill:#fff;opacity:0.4"></path><path d="M253.29,373c4.57-6.84,3.37-15.47-.33-22.35a45,45,0,0,0-4.67-6.75,18.61,18.61,0,0,1,10.8,13.27c1.29,5.65-.34,13-5.8,15.83Z" style="fill:#FFC727"></path><path d="M331.84,242.92c5.47,17.42-2.46,31.4-20.08,35.94,15.85-10.83,19.29-16.75,20.08-35.94Z" style="fill:#FFC727"></path><path d="M275.48,243.08c-6.49,8.88-20,10.31-29.58,6,10-.69,20.44-1.35,29.58-6Z" style="fill:#FFC727"></path><path d="M214.51,374.17c7.48-7.88,16.17-17.65,13.66-29.24a18.44,18.44,0,0,0-1-2.88c-.2-.41-.7-1.27-.89-1.68,6.11,4.24,6.24,13.48,3.15,19.68a29.33,29.33,0,0,1-14.94,14.12Z" style="fill:#FFC727"></path><path d="M133,314.07c2.49-2.43,5.2-4.84,6.54-8h1.13c7.77,0,15.44-2.93,20.63-8.92-1.67,6.45-8,10.83-14.37,11.76a21.62,21.62,0,0,1-6.58.1l1.46-.77a16.15,16.15,0,0,1-8.81,5.85Z" style="fill:#FFC727"></path><path d="M82.48,250.65a122.81,122.81,0,0,0,20.08,12.88c-8.46,1-17.43-4.82-20.08-12.88Z" style="fill:#FFC727"></path><path d="M146.36,198a123.42,123.42,0,0,0-23.54,3.81c5.62-6.39,16.19-8,23.54-3.81Z" style="fill:#FFC727"></path><path d="M106.39,297c8.43,6.21,11.69,19.92,4.76,28.35a52.76,52.76,0,0,0,.64-7.41c.07-7.39-2.51-14.16-5.4-20.94Z" style="fill:#FFC727"></path><path d="M119.56,222.51c-.92,5.89-1.62,11.86-.93,17.82-3.91-5.1-3.08-13,.93-17.82Z" style="fill:#FFC727"></path><path d="M245,260.82c4.74-3.6,9.41-7.4,13-12.16-.74,6.38-6.83,11.49-13,12.16Z" style="fill:#FFC727"></path><path d="M361.58,328.61c-3.17-5.87-6.6-11.69-11.26-16.53,6.95,1.9,11.58,9.51,11.26,16.53Z" style="fill:#FFC727"></path><path d="M189.46,221c6.89,3.73,11.33,12,12,19.68-2-2.82-4.29-6.88-6.07-9.83s-4.06-6.94-5.92-9.85Z" style="fill:#FFC727"></path><path d="M254.79,351.93a48.37,48.37,0,0,0,19.28-14.23c9.62-12.28,10.8-30.72,1.23-43.46a60.32,60.32,0,0,0-18.11-16A46.18,46.18,0,0,1,278.11,292c8.9,9.92,10.55,24.81,5.69,37s-16.39,20.81-29,22.87Z" style="fill:#FFC727"></path><path d="M252.84,315.91c-17-1.74-32.12-15.81-33.68-33a43.75,43.75,0,0,1,1.28-16.58,76.72,76.72,0,0,0,1.4,16.14c3,16.19,15.91,27.91,31,33.48Z" style="fill:#FFC727"></path><path d="M197.36,310c2-12.84,16.39-20.08,27.86-13.82-2.15.11-4.3,0-6.39.21-9.12.48-16.37,6.29-21.47,13.61Z" style="fill:#FFC727"></path><path d="M342.59,338.37c-7.57,10.56-23.66,10.58-31.1-.16,2,.87,3.83,2,5.81,2.68,8.36,3.66,17.45,1.72,25.29-2.52Z" style="fill:#FFC727"></path><path d="M182.67,314.22c8,14.93,6.38,35.34-7.09,46.62A40.06,40.06,0,0,1,161,368.75a65.38,65.38,0,0,0,12.74-9.88c11.66-11.68,12.75-29.28,9-44.65Z" style="fill:#FFC727"></path><path d="M185,341.85c3.53-7.51,14.51-10,21.08-5-3.68.26-7.31.32-10.85,1.23A50.48,50.48,0,0,0,185,341.85Z" style="fill:#FFC727"></path><path d="M292.22,249.92c-2.28-21-14.35-34.61-36.33-33.61a63.68,63.68,0,0,0-18.68,4.08,39.55,39.55,0,0,1,13.34-6.67c24.73-7,45.68,10.49,41.67,36.2Z" style="fill:#FFC727"></path><path d="M189.92,207.56c-15.48-14.44-33.49-16.82-49.46-1.69A63.18,63.18,0,0,0,129,221.17a39.21,39.21,0,0,1,5.73-13.77c14.11-21.49,41.42-21.91,55.2.16Z" style="fill:#FFC727"></path><path d="M283.44,357.11c11.88,6.61,24.62,8,34.84-2.17a69.1,69.1,0,0,0,8.21-10.17c-2.76,9.79-10.4,19.42-21.17,20.69-8.06,1.19-16.44-2.63-21.88-8.35Z" style="fill:#FFC727"></path><path d="M144.66,280.83c-8.9,14.83-27.69,23.71-44.36,16.93a40,40,0,0,1-14-9.33,63.93,63.93,0,0,0,14.85,6.75c16.17,4.92,32.08-2.94,43.51-14.35Z" style="fill:#FFC727"></path><path d="M191.54,191.86c12.94-4.26,30.34,1.8,34.09,15.8-8.33-11-20.84-14.69-34.09-15.8Z" style="fill:#FFC727"></path><path d="M163.9,244.23c11.08,7.93,16.46,25.55,7.37,36.85,4-13.25-.44-25.49-7.37-36.85Z" style="fill:#FFC727"></path><path d="M195.25,270.76c-7.82-21.6,7.31-41,30-39.94a74.06,74.06,0,0,0-13,5.32c-13,6.71-17.51,20.58-17,34.62Z" style="fill:#FFC727"></path><path d="M139.75,367.85c-4.64-4.62-6.24-12.33-4.94-18.64.93,2.74,1.8,6.54,2.53,9.34s1.61,6.53,2.41,9.3Z" style="fill:#FFC727"></path><path d="M146.93,326.54c1.15,19.19-15.62,31.18-33.6,24.91a61.93,61.93,0,0,0,11.72-1.17c12-2.29,18.94-12.36,21.88-23.74Z" style="fill:#FFC727"></path><path d="M299.79,271.1c20.1,3.66,26.88,22.37,11.39,36.65a54.92,54.92,0,0,0,4.45-10.7c3.68-12.39-5.93-20.51-15.84-25.95Z" style="fill:#FFC727"></path><path d="M104.37,235.77c20.16-3.34,32.86,12,23.12,30.64a55.53,55.53,0,0,0,.56-11.57c-.72-12.9-12.51-17.3-23.68-19.07Z" style="fill:#FFC727"></path><path d="M360.59,287.78a27.14,27.14,0,0,0-10.92-7.67l1.94-2.24a16,16,0,0,1,2,7.52,15.8,15.8,0,0,1-6.85,13.11,22.65,22.65,0,0,1-6.48,3.2c.89-.82,1.79-1.58,2.68-2.32,6-5.32,9.14-12.23,5.92-20l-1.73-4,3.68,1.73a18.72,18.72,0,0,1,9.79,10.61Z" style="fill:#FFC727"></path><path d="M141,320.27a101,101,0,0,0-29.94,19.84,97.68,97.68,0,0,0-15.85,20.23l19.6,20.34s4.7-4.78,14.07-12.91c2.38-2.07,21.23-8.7,35.38-14.49C164.29,353.28,171.15,327.12,141,320.27Z" style="fill:#FFC727"></path><path d="M95.06,395.08c1.66-1.4,10.91,5.12,11,11.3.08,4.15,4.41,12.09,9.7,11.4,5.78-.75-.67-16.59,0-23.4s1.45-16.06,1.45-16.06C114.36,380.52,96.79,393.55,95.06,395.08Z" style="fill:#FFC727"></path><path d="M98.64,355c-15.28,6.83-27.93,13.19-35,28.34a8.24,8.24,0,0,0-.69,5.38c-3.3,6.73-1.1,10.31-1.1,10.31-1.15,7.21,1.59,10.55,1.59,10.55s-3.78,7.95.65,11c5,3.47,9.29-8.37,15.65-13.42,14.59-11.57,33.46-25.58,37.52-28.83Z" style="fill:#FFC727"></path><path d="M86.49,384.28A120.65,120.65,0,0,0,74.3,395.13c-4.09,4.44-7.29,9.4-10.66,14.37a.15.15,0,0,1-.26-.15c4.69-10,13.62-19.49,23-25.27C86.56,383.94,86.71,384.1,86.49,384.28Z" style="fill:#263238"></path><path d="M80.79,374.46c-3.92,3.62-10.78,10-18.8,24.61a0,0,0,0,1-.09,0,56.82,56.82,0,0,1,18.72-24.76C80.88,374.06,81.05,374.22,80.79,374.46Z" style="fill:#263238"></path><path d="M77.62,369.24c-6.43,6.42-9.68,11.28-14.63,19.42,0,0-.12,0-.09,0,4.66-9.85,7.46-12.89,14.53-19.63C77.68,368.75,77.87,369,77.62,369.24Z" style="fill:#263238"></path><path d="M346.59,202.73c12.18-4.37,22.66,5.6,27.76,19.8,4.13,11.51,1.11,25.85-10.58,30s-23.87-7-27.74-17.83S333.37,207.47,346.59,202.73Z" style="fill:#263238"></path><path d="M346.49,206.13c11.44-4.11,21.3,5.26,26.09,18.61,3.88,10.82,1,24.29-9.94,28.23s-22.44-6.6-26.08-16.75S334.06,210.59,346.49,206.13Z" style="fill:#fff"></path><path d="M344.16,205.92c9-3.22,16.68,4.11,20.43,14.57,3,8.46.81,19-7.79,22.1s-17.56-5.17-20.41-13.12S334.43,209.41,344.16,205.92Z" style="fill:#263238"></path><path d="M259.67,224.87c-17.84.95-26.08,15.12-25.22,31.11.69,13,12,25.62,29.1,24.7s26.88-17,26.23-29.18S279,223.83,259.67,224.87Z" style="fill:#263238"></path><path d="M261.57,228.13c-16.77.89-24.52,14.21-23.71,29.24.65,12.18,11.26,24.08,27.35,23.22s25.27-16,24.66-27.43S279.77,227.16,261.57,228.13Z" style="fill:#fff"></path><path d="M257.65,227.24c-13.69.73-20,11.6-19.36,23.88.53,9.94,9.19,19.65,22.33,18.95s20.63-13.06,20.13-22.4S272.51,226.45,257.65,227.24Z" style="fill:#263238"></path><path d="M356.66,193.58c-2.19-3.93-6.51-5.9-10.78-6.42s-8.76.58-11.94,3.8a46.45,46.45,0,0,0,6,1.17,152.1,152.1,0,0,0,16.76,1.45Z" style="fill:#263238"></path><path d="M243.53,210.15a153.43,153.43,0,0,0,13.17-10.46,46.34,46.34,0,0,0,4.33-4.26c-4.43-.94-8.76.72-12.06,3.42s-5.78,6.81-5.44,11.3Z" style="fill:#263238"></path><path d="M291.74,295.37c2.35,2,4.76,4.76,8.11,4.79,3.2,0,6.83-1.69,9.66-3a.33.33,0,0,1,.44.44,12.36,12.36,0,0,1-11.25,5.84c-4.2-.41-6.52-3.84-7.81-7.55C290.71,295.33,291.39,295.08,291.74,295.37Z" style="fill:#263238"></path><path d="M341.38,256.43c-3.57,14.09-21.69,12.31-32.59,15.09a39.68,39.68,0,0,0-11,4.87c4.24-8,13.7-10.87,22.11-11.69,7.93-1.06,16.23-1.56,21.48-8.27Z" style="fill:#263238"></path><path d="M315.93,266.55s1.51,16.82-6.59,22.54c-9.31,6.58-18.72-4-10.15-14.7C303.68,268.78,315.93,266.55,315.93,266.55Z" style="fill:#263238"></path><path d="M315.57,276.47c-.71,4.67-2.45,9.91-6.26,12.61-4.89,3.48-9.85,2.17-12.17-1.44l0-.06c-.08-.13-.05-.23-.07-.4C304.52,276.51,311.07,275.22,315.57,276.47Z" style="fill:#ff99ba"></path><path d="M321.3,233.87a86.58,86.58,0,0,1,14.5,9.79c-3.21,2.26-6.53,4.53-9.85,6.61l.73-2.45a14.36,14.36,0,0,0,5.76,6,23.36,23.36,0,0,0,8.94,2.64l-1.88,2.36c-6,.19-14.93-5.23-17.15-10.87,3-2.05,6.12-4.06,9.26-5.94l-.2,3a78.47,78.47,0,0,1-10.11-11.13Z" style="fill:#263238"></path></g></svg>
